<!-- icon666.com - MILLIONS OF FREE VECTOR ICONS --><svg id="Capa_1" enable-background="new 0 0 512 512" viewBox="0 0 512 512" xmlns="http://www.w3.org/2000/svg"><g><circle cx="256" cy="256" fill="#7a3eb4" r="256"></circle><path d="m354.051 109.7-24.732-24.732-70.215 70.215-13.954-13.954-17.057-2.965-27.688-27.688-83.968 83.967 28.626 28.626 2.027 16.12 29.098 29.098-.631 4.111-48.35 4.778-10.771 119.327 114.142 114.142c8.364.825 16.842 1.255 25.422 1.255 141.385 0 256-114.615 256-256 0-.049-.002-.098-.002-.147l-145.23-145.231z" fill="#613393"></path><g><g><path d="m185.777 249.254 6.418-21.146-6.418-22.356c-14.269 0-25.837-11.568-25.837-25.837s11.568-25.837 25.837-25.837l6.418-18.702-6.418-24.799h-14.629v21.287c-3.143.956-6.154 2.211-9.002 3.733l-15.055-15.055-20.688 20.688 15.055 15.055c-1.522 2.848-2.777 5.86-3.733 9.002h-21.287v29.257h21.287c.956 3.143 2.211 6.154 3.733 9.003l-15.055 15.055 20.688 20.688 15.055-15.055c2.848 1.522 5.86 2.777 9.002 3.733v21.287h14.629z" fill="#fd5"></path><path d="m230.095 156.284 15.055-15.055-20.688-20.688-15.055 15.055c-2.848-1.522-5.86-2.777-9.002-3.733v-21.287h-14.629v43.502c14.269 0 25.837 11.568 25.837 25.837s-11.568 25.837-25.837 25.837v43.502h14.629v-21.287c3.143-.956 6.154-2.211 9.002-3.733l15.055 15.055 20.688-20.688-15.055-15.055c1.522-2.848 2.777-5.86 3.733-9.002h21.287v-29.257h-21.287c-.955-3.143-2.211-6.154-3.733-9.003z" fill="#fc0"></path></g><g><path d="m317.076 201.03 5.371-17.698-5.371-18.71c-11.942 0-21.624-9.681-21.624-21.624 0-11.942 9.681-21.624 21.624-21.624l5.371-15.652-5.371-20.755h-12.243v17.816c-2.63.8-5.15 1.85-7.534 3.124l-12.6-12.6-17.314 17.314 12.6 12.6c-1.274 2.384-2.324 4.904-3.124 7.534h-17.816v24.486h17.816c.8 2.63 1.85 5.15 3.124 7.534l-12.6 12.6 17.314 17.314 12.6-12.6c2.384 1.274 4.904 2.324 7.534 3.124v17.816h12.243z" fill="#9afaff" style="fill: rgb(244, 227, 144);"></path><path d="m354.168 123.222 12.6-12.6-17.314-17.314-12.6 12.6c-2.384-1.274-4.904-2.324-7.534-3.124v-17.816h-12.243v36.408c11.942 0 21.624 9.681 21.624 21.624 0 11.942-9.681 21.624-21.624 21.624v36.408h12.243v-17.816c2.63-.8 5.15-1.85 7.534-3.124l12.6 12.6 17.314-17.314-12.6-12.6c1.274-2.384 2.324-4.904 3.124-7.534h17.816v-24.486h-17.816c-.8-2.632-1.851-5.152-3.124-7.536z" fill="#00e6ef" style="fill: rgb(249, 217, 103);"></path></g><g><path d="m183.03 283.651v-19h-66.593v131.952h66.593v-19h-47.593v-37.475h44.084v-19h-44.084v-37.477z" fill="#00ed89" style="fill: rgb(255, 255, 255);"></path><path d="m361.264 264.131h-22.241-9.5-9.5v132.993h19v-49.567c7.328-.04 17.159-.089 22.241-.089 23.323 0 42.299-18.692 42.299-41.669s-18.976-41.668-42.299-41.668zm0 64.338c-5.056 0-14.752.047-22.073.088-.041-7.523-.089-17.597-.089-22.757 0-4.358-.027-14.841-.051-22.669h22.213c12.629 0 23.299 10.381 23.299 22.669s-10.67 22.669-23.299 22.669z" fill="#00cb76" style="fill: rgb(212, 212, 212);"></path><path d="m257.717 323.245c-.803.087-1.617.136-2.44.136-3.005 0-20.637.078-20.637.078l-.125-40.329h20.762c.824 0 1.637.049 2.44.136l7.671-9.285-7.671-9.775c-.808-.046-1.62-.076-2.44-.076h-39.829v132.993h19v-54.352l23.27 26.439 4.95-11.515-4.95-15.68 4.172-9.396z" fill="#00ed89" style="fill: rgb(255, 255, 255);"></path><path d="m296.078 303.257c0-20.788-16.996-37.834-38.361-39.05v19.06c10.719 1.161 19.361 9.841 19.361 19.99s-8.642 18.828-19.361 19.989v45.966l28.007 31.821 14.263-12.554-40.737-46.285c20.64-1.923 36.828-18.65 36.828-38.937z" fill="#00cb76" style="fill: rgb(212, 212, 212);"></path></g></g></g></svg>